<mxfile host="app.diagrams.net" agent="Mozilla/5.0 (Windows NT 10.0; Win64; x64) AppleWebKit/537.36 (KHTML, like Gecko) Chrome/126.0.0.0 YaBrowser/24.7.0.0 Safari/537.36" version="24.7.14">
  <diagram name="Страница — 1" id="_dXxYoUq4WaA4_FMv_jv">
    <mxGraphModel dx="1434" dy="791" grid="1" gridSize="10" guides="1" tooltips="1" connect="1" arrows="1" fold="1" page="1" pageScale="1" pageWidth="827" pageHeight="1169" math="0" shadow="0">
      <root>
        <mxCell id="0" />
        <mxCell id="1" parent="0" />
        <mxCell id="I2-msrbf51rZSfqo-Kuj-7" value="" style="edgeStyle=orthogonalEdgeStyle;shape=connector;rounded=0;orthogonalLoop=1;jettySize=auto;html=1;strokeColor=default;align=center;verticalAlign=middle;fontFamily=Helvetica;fontSize=12;fontColor=default;labelBackgroundColor=default;endArrow=none;endFill=0;" edge="1" parent="1" source="I2-msrbf51rZSfqo-Kuj-1" target="I2-msrbf51rZSfqo-Kuj-3">
          <mxGeometry relative="1" as="geometry" />
        </mxCell>
        <mxCell id="I2-msrbf51rZSfqo-Kuj-1" value="Начало" style="strokeWidth=2;html=1;shape=mxgraph.flowchart.terminator;whiteSpace=wrap;strokeColor=default;align=center;verticalAlign=middle;fontFamily=Helvetica;fontSize=12;fontColor=default;labelBackgroundColor=default;fillColor=default;" vertex="1" parent="1">
          <mxGeometry x="280" y="70" width="280" height="50" as="geometry" />
        </mxCell>
        <mxCell id="I2-msrbf51rZSfqo-Kuj-8" value="" style="edgeStyle=orthogonalEdgeStyle;shape=connector;rounded=0;orthogonalLoop=1;jettySize=auto;html=1;strokeColor=default;align=center;verticalAlign=middle;fontFamily=Helvetica;fontSize=12;fontColor=default;labelBackgroundColor=default;endArrow=none;endFill=0;" edge="1" parent="1" source="I2-msrbf51rZSfqo-Kuj-3" target="I2-msrbf51rZSfqo-Kuj-4">
          <mxGeometry relative="1" as="geometry" />
        </mxCell>
        <mxCell id="I2-msrbf51rZSfqo-Kuj-3" value="Отображение списка журналов&amp;nbsp;" style="rounded=1;whiteSpace=wrap;html=1;absoluteArcSize=1;arcSize=14;strokeWidth=2;strokeColor=default;align=center;verticalAlign=middle;fontFamily=Helvetica;fontSize=12;fontColor=default;labelBackgroundColor=default;fillColor=default;" vertex="1" parent="1">
          <mxGeometry x="280" y="160" width="280" height="60" as="geometry" />
        </mxCell>
        <mxCell id="I2-msrbf51rZSfqo-Kuj-9" value="" style="edgeStyle=orthogonalEdgeStyle;shape=connector;rounded=0;orthogonalLoop=1;jettySize=auto;html=1;strokeColor=default;align=center;verticalAlign=middle;fontFamily=Helvetica;fontSize=12;fontColor=default;labelBackgroundColor=default;endArrow=none;endFill=0;" edge="1" parent="1" source="I2-msrbf51rZSfqo-Kuj-4" target="I2-msrbf51rZSfqo-Kuj-5">
          <mxGeometry relative="1" as="geometry" />
        </mxCell>
        <mxCell id="I2-msrbf51rZSfqo-Kuj-4" value="Выбор журнала" style="shape=parallelogram;html=1;strokeWidth=2;perimeter=parallelogramPerimeter;whiteSpace=wrap;rounded=1;arcSize=12;size=0.23;strokeColor=default;align=center;verticalAlign=middle;fontFamily=Helvetica;fontSize=12;fontColor=default;labelBackgroundColor=default;fillColor=default;" vertex="1" parent="1">
          <mxGeometry x="280" y="270" width="280" height="60" as="geometry" />
        </mxCell>
        <mxCell id="I2-msrbf51rZSfqo-Kuj-10" value="" style="edgeStyle=orthogonalEdgeStyle;shape=connector;rounded=0;orthogonalLoop=1;jettySize=auto;html=1;strokeColor=default;align=center;verticalAlign=middle;fontFamily=Helvetica;fontSize=12;fontColor=default;labelBackgroundColor=default;endArrow=none;endFill=0;" edge="1" parent="1" source="I2-msrbf51rZSfqo-Kuj-5" target="I2-msrbf51rZSfqo-Kuj-6">
          <mxGeometry relative="1" as="geometry" />
        </mxCell>
        <mxCell id="I2-msrbf51rZSfqo-Kuj-5" value="Отображение списка записей в журнале" style="rounded=1;whiteSpace=wrap;html=1;absoluteArcSize=1;arcSize=14;strokeWidth=2;strokeColor=default;align=center;verticalAlign=middle;fontFamily=Helvetica;fontSize=12;fontColor=default;labelBackgroundColor=default;fillColor=default;" vertex="1" parent="1">
          <mxGeometry x="280" y="380" width="280" height="60" as="geometry" />
        </mxCell>
        <mxCell id="I2-msrbf51rZSfqo-Kuj-6" value="Конец" style="strokeWidth=2;html=1;shape=mxgraph.flowchart.terminator;whiteSpace=wrap;strokeColor=default;align=center;verticalAlign=middle;fontFamily=Helvetica;fontSize=12;fontColor=default;labelBackgroundColor=default;fillColor=default;" vertex="1" parent="1">
          <mxGeometry x="280" y="480" width="280" height="50" as="geometry" />
        </mxCell>
      </root>
    </mxGraphModel>
  </diagram>
</mxfile>
